<svg xmlns="http://www.w3.org/2000/svg" viewBox="0 0 1000 750" role="img" aria-label="Cartons packed for export">
  <defs>
    <linearGradient id="bg" x1="0" y1="0" x2="1" y2="1">
      <stop offset="0" stop-color="#0f2033"/><stop offset="1" stop-color="#123a3a"/>
    </linearGradient>
    <pattern id="weave" width="14" height="14" patternUnits="userSpaceOnUse">
      <path d="M0 7h14M7 0v14" stroke="#ffffff" stroke-opacity=".08" stroke-width="1.4"/>
      <path d="M0 0l14 14M14 0L0 14" stroke="#ffffff" stroke-opacity=".04" stroke-width="1"/>
    </pattern>
    <linearGradient id="sheen" x1="0" y1="0" x2="1" y2="1">
      <stop offset="0" stop-color="#ffffff" stop-opacity=".22"/>
      <stop offset="1" stop-color="#ffffff" stop-opacity="0"/>
    </linearGradient>
  </defs>
  <rect width="1000" height="750" fill="url(#bg)"/>
  <rect width="1000" height="750" fill="url(#weave)"/>
  <g transform="translate(150 470)">
    <rect x="0" y="0" width="200" height="120" rx="6" fill="#d8bf9a" opacity=".95"/>
    <rect x="0" y="0" width="200" height="120" rx="6" fill="url(#sheen)"/>
    <rect x="0" y="0" width="200" height="120" rx="6" fill="none" stroke="#0d1320" stroke-opacity=".28" stroke-width="2.5"/>
    <path d="M100 0 v120" stroke="#0d1320" stroke-opacity=".22" stroke-width="2.5"/>
    <rect x="26" y="30" width="52" height="9" rx="3" fill="#0d1320" opacity=".35"/>
    <rect x="26" y="48" width="34" height="9" rx="3" fill="#0d1320" opacity=".22"/>
    <rect x="122" y="30" width="52" height="9" rx="3" fill="#0d1320" opacity=".35"/>
    <rect x="122" y="48" width="40" height="9" rx="3" fill="#0d1320" opacity=".22"/>
  </g>
  <g transform="translate(150 340)">
    <rect x="0" y="0" width="200" height="120" rx="6" fill="#d8bf9a" opacity=".95"/>
    <rect x="0" y="0" width="200" height="120" rx="6" fill="url(#sheen)"/>
    <rect x="0" y="0" width="200" height="120" rx="6" fill="none" stroke="#0d1320" stroke-opacity=".28" stroke-width="2.5"/>
    <path d="M100 0 v120" stroke="#0d1320" stroke-opacity=".22" stroke-width="2.5"/>
    <rect x="26" y="30" width="52" height="9" rx="3" fill="#0d1320" opacity=".35"/>
    <rect x="26" y="48" width="34" height="9" rx="3" fill="#0d1320" opacity=".22"/>
    <rect x="122" y="30" width="52" height="9" rx="3" fill="#0d1320" opacity=".35"/>
    <rect x="122" y="48" width="40" height="9" rx="3" fill="#0d1320" opacity=".22"/>
  </g>
  <g transform="translate(390 470)">
    <rect x="0" y="0" width="200" height="120" rx="6" fill="#d8bf9a" opacity=".95"/>
    <rect x="0" y="0" width="200" height="120" rx="6" fill="url(#sheen)"/>
    <rect x="0" y="0" width="200" height="120" rx="6" fill="none" stroke="#0d1320" stroke-opacity=".28" stroke-width="2.5"/>
    <path d="M100 0 v120" stroke="#0d1320" stroke-opacity=".22" stroke-width="2.5"/>
    <rect x="26" y="30" width="52" height="9" rx="3" fill="#0d1320" opacity=".35"/>
    <rect x="26" y="48" width="34" height="9" rx="3" fill="#0d1320" opacity=".22"/>
    <rect x="122" y="30" width="52" height="9" rx="3" fill="#0d1320" opacity=".35"/>
    <rect x="122" y="48" width="40" height="9" rx="3" fill="#0d1320" opacity=".22"/>
  </g>
  <g transform="translate(390 400)">
    <rect x="0" y="0" width="200" height="120" rx="6" fill="#d8bf9a" opacity=".95"/>
    <rect x="0" y="0" width="200" height="120" rx="6" fill="url(#sheen)"/>
    <rect x="0" y="0" width="200" height="120" rx="6" fill="none" stroke="#0d1320" stroke-opacity=".28" stroke-width="2.5"/>
    <path d="M100 0 v120" stroke="#0d1320" stroke-opacity=".22" stroke-width="2.5"/>
    <rect x="26" y="30" width="52" height="9" rx="3" fill="#0d1320" opacity=".35"/>
    <rect x="26" y="48" width="34" height="9" rx="3" fill="#0d1320" opacity=".22"/>
    <rect x="122" y="30" width="52" height="9" rx="3" fill="#0d1320" opacity=".35"/>
    <rect x="122" y="48" width="40" height="9" rx="3" fill="#0d1320" opacity=".22"/>
  </g>
  <g transform="translate(630 470)">
    <rect x="0" y="0" width="200" height="120" rx="6" fill="#d8bf9a" opacity=".95"/>
    <rect x="0" y="0" width="200" height="120" rx="6" fill="url(#sheen)"/>
    <rect x="0" y="0" width="200" height="120" rx="6" fill="none" stroke="#0d1320" stroke-opacity=".28" stroke-width="2.5"/>
    <path d="M100 0 v120" stroke="#0d1320" stroke-opacity=".22" stroke-width="2.5"/>
    <rect x="26" y="30" width="52" height="9" rx="3" fill="#0d1320" opacity=".35"/>
    <rect x="26" y="48" width="34" height="9" rx="3" fill="#0d1320" opacity=".22"/>
    <rect x="122" y="30" width="52" height="9" rx="3" fill="#0d1320" opacity=".35"/>
    <rect x="122" y="48" width="40" height="9" rx="3" fill="#0d1320" opacity=".22"/>
  </g>
  <g transform="translate(630 340)">
    <rect x="0" y="0" width="200" height="120" rx="6" fill="#d8bf9a" opacity=".95"/>
    <rect x="0" y="0" width="200" height="120" rx="6" fill="url(#sheen)"/>
    <rect x="0" y="0" width="200" height="120" rx="6" fill="none" stroke="#0d1320" stroke-opacity=".28" stroke-width="2.5"/>
    <path d="M100 0 v120" stroke="#0d1320" stroke-opacity=".22" stroke-width="2.5"/>
    <rect x="26" y="30" width="52" height="9" rx="3" fill="#0d1320" opacity=".35"/>
    <rect x="26" y="48" width="34" height="9" rx="3" fill="#0d1320" opacity=".22"/>
    <rect x="122" y="30" width="52" height="9" rx="3" fill="#0d1320" opacity=".35"/>
    <rect x="122" y="48" width="40" height="9" rx="3" fill="#0d1320" opacity=".22"/>
  </g>
  <g transform="translate(630 210)">
    <rect x="0" y="0" width="200" height="120" rx="6" fill="#d8bf9a" opacity=".95"/>
    <rect x="0" y="0" width="200" height="120" rx="6" fill="url(#sheen)"/>
    <rect x="0" y="0" width="200" height="120" rx="6" fill="none" stroke="#0d1320" stroke-opacity=".28" stroke-width="2.5"/>
    <path d="M100 0 v120" stroke="#0d1320" stroke-opacity=".22" stroke-width="2.5"/>
    <rect x="26" y="30" width="52" height="9" rx="3" fill="#0d1320" opacity=".35"/>
    <rect x="26" y="48" width="34" height="9" rx="3" fill="#0d1320" opacity=".22"/>
    <rect x="122" y="30" width="52" height="9" rx="3" fill="#0d1320" opacity=".35"/>
    <rect x="122" y="48" width="40" height="9" rx="3" fill="#0d1320" opacity=".22"/>
  </g>

  <rect x="110" y="596" width="760" height="16" rx="6" fill="#0d1320" opacity=".45"/>
  <rect x="150" y="612" width="30" height="34" fill="#0d1320" opacity=".35"/>
  <rect x="800" y="612" width="30" height="34" fill="#0d1320" opacity=".35"/>
  <rect x="0" y="690" width="1000" height="60" fill="#0d1320" opacity=".3"/>
</svg>